<mxfile host="app.diagrams.net" modified="2023-01-12T21:19:41.452Z" agent="5.0 (Windows NT 10.0; Win64; x64) AppleWebKit/537.36 (KHTML, like Gecko) Chrome/108.0.0.0 Safari/537.36" etag="Sg-V9mgtNvXaQCp4Z1ql" version="20.8.5" type="github">
  <diagram id="C5RBs43oDa-KdzZeNtuy" name="Page-1">
    <mxGraphModel dx="2062" dy="691" grid="1" gridSize="10" guides="1" tooltips="1" connect="1" arrows="1" fold="1" page="1" pageScale="1" pageWidth="827" pageHeight="1169" math="0" shadow="0">
      <root>
        <mxCell id="WIyWlLk6GJQsqaUBKTNV-0" />
        <mxCell id="WIyWlLk6GJQsqaUBKTNV-1" parent="WIyWlLk6GJQsqaUBKTNV-0" />
        <mxCell id="ASdXPYL3L9GyblWGiS_Q-5" value="" style="edgeStyle=orthogonalEdgeStyle;rounded=0;orthogonalLoop=1;jettySize=auto;html=1;" edge="1" parent="WIyWlLk6GJQsqaUBKTNV-1" source="WIyWlLk6GJQsqaUBKTNV-3" target="ASdXPYL3L9GyblWGiS_Q-0">
          <mxGeometry relative="1" as="geometry" />
        </mxCell>
        <mxCell id="WIyWlLk6GJQsqaUBKTNV-3" value="se alege un cuvant aleatoriu din lista" style="rounded=1;whiteSpace=wrap;html=1;fontSize=12;glass=0;strokeWidth=1;shadow=0;" parent="WIyWlLk6GJQsqaUBKTNV-1" vertex="1">
          <mxGeometry x="160" y="20" width="120" height="40" as="geometry" />
        </mxCell>
        <mxCell id="ASdXPYL3L9GyblWGiS_Q-28" value="" style="edgeStyle=orthogonalEdgeStyle;rounded=0;orthogonalLoop=1;jettySize=auto;html=1;startArrow=none;" edge="1" parent="WIyWlLk6GJQsqaUBKTNV-1" source="ASdXPYL3L9GyblWGiS_Q-29" target="ASdXPYL3L9GyblWGiS_Q-27">
          <mxGeometry relative="1" as="geometry">
            <Array as="points">
              <mxPoint x="30" y="450" />
            </Array>
          </mxGeometry>
        </mxCell>
        <mxCell id="ASdXPYL3L9GyblWGiS_Q-74" style="edgeStyle=orthogonalEdgeStyle;rounded=0;orthogonalLoop=1;jettySize=auto;html=1;entryX=0.5;entryY=0;entryDx=0;entryDy=0;startArrow=none;" edge="1" parent="WIyWlLk6GJQsqaUBKTNV-1" source="ASdXPYL3L9GyblWGiS_Q-67" target="ASdXPYL3L9GyblWGiS_Q-9">
          <mxGeometry relative="1" as="geometry">
            <Array as="points">
              <mxPoint x="455" y="450" />
            </Array>
          </mxGeometry>
        </mxCell>
        <mxCell id="WIyWlLk6GJQsqaUBKTNV-6" value="este in lista de litere?" style="rhombus;whiteSpace=wrap;html=1;shadow=0;fontFamily=Helvetica;fontSize=12;align=center;strokeWidth=1;spacing=6;spacingTop=-4;" parent="WIyWlLk6GJQsqaUBKTNV-1" vertex="1">
          <mxGeometry x="170" y="410" width="100" height="80" as="geometry" />
        </mxCell>
        <mxCell id="ASdXPYL3L9GyblWGiS_Q-6" value="" style="edgeStyle=orthogonalEdgeStyle;rounded=0;orthogonalLoop=1;jettySize=auto;html=1;" edge="1" parent="WIyWlLk6GJQsqaUBKTNV-1" source="ASdXPYL3L9GyblWGiS_Q-0" target="ASdXPYL3L9GyblWGiS_Q-3">
          <mxGeometry relative="1" as="geometry" />
        </mxCell>
        <mxCell id="ASdXPYL3L9GyblWGiS_Q-0" value="se imparte cuvantul in litere si acestea sunt puse ca elemente separate in lista" style="rounded=1;whiteSpace=wrap;html=1;fontSize=12;glass=0;strokeWidth=1;shadow=0;" vertex="1" parent="WIyWlLk6GJQsqaUBKTNV-1">
          <mxGeometry x="150" y="100" width="140" height="60" as="geometry" />
        </mxCell>
        <mxCell id="ASdXPYL3L9GyblWGiS_Q-13" value="" style="edgeStyle=orthogonalEdgeStyle;rounded=0;orthogonalLoop=1;jettySize=auto;html=1;" edge="1" parent="WIyWlLk6GJQsqaUBKTNV-1" source="ASdXPYL3L9GyblWGiS_Q-3" target="ASdXPYL3L9GyblWGiS_Q-12">
          <mxGeometry relative="1" as="geometry" />
        </mxCell>
        <mxCell id="ASdXPYL3L9GyblWGiS_Q-3" value="este afisat numarul de litere de ghicit pe ecran si numarul de vieti disponibile" style="rounded=1;whiteSpace=wrap;html=1;fontSize=12;glass=0;strokeWidth=1;shadow=0;" vertex="1" parent="WIyWlLk6GJQsqaUBKTNV-1">
          <mxGeometry x="150" y="210" width="140" height="60" as="geometry" />
        </mxCell>
        <mxCell id="ASdXPYL3L9GyblWGiS_Q-92" style="edgeStyle=orthogonalEdgeStyle;rounded=0;orthogonalLoop=1;jettySize=auto;html=1;entryX=0.5;entryY=0;entryDx=0;entryDy=0;" edge="1" parent="WIyWlLk6GJQsqaUBKTNV-1" source="ASdXPYL3L9GyblWGiS_Q-9" target="ASdXPYL3L9GyblWGiS_Q-20">
          <mxGeometry relative="1" as="geometry" />
        </mxCell>
        <mxCell id="ASdXPYL3L9GyblWGiS_Q-9" value="se scade numarul literelor de ghicit si se afiseaza unde trebuie sa se afle pe ecran" style="whiteSpace=wrap;html=1;shadow=0;strokeWidth=1;spacing=6;spacingTop=-4;" vertex="1" parent="WIyWlLk6GJQsqaUBKTNV-1">
          <mxGeometry x="390" y="495" width="130" height="60" as="geometry" />
        </mxCell>
        <mxCell id="ASdXPYL3L9GyblWGiS_Q-14" value="" style="edgeStyle=orthogonalEdgeStyle;rounded=0;orthogonalLoop=1;jettySize=auto;html=1;" edge="1" parent="WIyWlLk6GJQsqaUBKTNV-1" source="ASdXPYL3L9GyblWGiS_Q-12" target="WIyWlLk6GJQsqaUBKTNV-6">
          <mxGeometry relative="1" as="geometry" />
        </mxCell>
        <mxCell id="ASdXPYL3L9GyblWGiS_Q-12" value="se introduce o litera de la tastatura&amp;nbsp;" style="whiteSpace=wrap;html=1;rounded=1;glass=0;strokeWidth=1;shadow=0;" vertex="1" parent="WIyWlLk6GJQsqaUBKTNV-1">
          <mxGeometry x="160" y="310" width="120" height="60" as="geometry" />
        </mxCell>
        <mxCell id="ASdXPYL3L9GyblWGiS_Q-99" value="" style="edgeStyle=orthogonalEdgeStyle;rounded=0;orthogonalLoop=1;jettySize=auto;html=1;" edge="1" parent="WIyWlLk6GJQsqaUBKTNV-1" source="ASdXPYL3L9GyblWGiS_Q-20" target="ASdXPYL3L9GyblWGiS_Q-98">
          <mxGeometry relative="1" as="geometry" />
        </mxCell>
        <mxCell id="ASdXPYL3L9GyblWGiS_Q-20" value="mai sunt litere neghicite?" style="rhombus;whiteSpace=wrap;html=1;shadow=0;strokeWidth=1;spacing=6;spacingTop=-4;" vertex="1" parent="WIyWlLk6GJQsqaUBKTNV-1">
          <mxGeometry x="415" y="615" width="80" height="80" as="geometry" />
        </mxCell>
        <mxCell id="ASdXPYL3L9GyblWGiS_Q-83" style="edgeStyle=orthogonalEdgeStyle;rounded=0;orthogonalLoop=1;jettySize=auto;html=1;entryX=0.5;entryY=0;entryDx=0;entryDy=0;" edge="1" parent="WIyWlLk6GJQsqaUBKTNV-1" source="ASdXPYL3L9GyblWGiS_Q-27" target="ASdXPYL3L9GyblWGiS_Q-81">
          <mxGeometry relative="1" as="geometry" />
        </mxCell>
        <mxCell id="ASdXPYL3L9GyblWGiS_Q-27" value="se scade numarul vietilor si se deseneaza urmatorul element&amp;nbsp;" style="whiteSpace=wrap;html=1;shadow=0;strokeWidth=1;spacing=6;spacingTop=-4;" vertex="1" parent="WIyWlLk6GJQsqaUBKTNV-1">
          <mxGeometry x="-40" y="490" width="130" height="70" as="geometry" />
        </mxCell>
        <mxCell id="ASdXPYL3L9GyblWGiS_Q-70" style="edgeStyle=orthogonalEdgeStyle;rounded=0;orthogonalLoop=1;jettySize=auto;html=1;entryX=1;entryY=0.5;entryDx=0;entryDy=0;startArrow=none;" edge="1" parent="WIyWlLk6GJQsqaUBKTNV-1" source="ASdXPYL3L9GyblWGiS_Q-72" target="ASdXPYL3L9GyblWGiS_Q-3">
          <mxGeometry relative="1" as="geometry">
            <Array as="points" />
          </mxGeometry>
        </mxCell>
        <mxCell id="ASdXPYL3L9GyblWGiS_Q-59" value="ai pierdut" style="whiteSpace=wrap;html=1;shadow=0;strokeWidth=1;spacing=6;spacingTop=-4;" vertex="1" parent="WIyWlLk6GJQsqaUBKTNV-1">
          <mxGeometry x="-35" y="800" width="120" height="60" as="geometry" />
        </mxCell>
        <mxCell id="ASdXPYL3L9GyblWGiS_Q-65" value="" style="edgeStyle=orthogonalEdgeStyle;rounded=0;orthogonalLoop=1;jettySize=auto;html=1;endArrow=none;" edge="1" parent="WIyWlLk6GJQsqaUBKTNV-1" source="WIyWlLk6GJQsqaUBKTNV-6" target="ASdXPYL3L9GyblWGiS_Q-29">
          <mxGeometry relative="1" as="geometry">
            <mxPoint x="170" y="450" as="sourcePoint" />
            <mxPoint x="30" y="490" as="targetPoint" />
            <Array as="points" />
          </mxGeometry>
        </mxCell>
        <mxCell id="ASdXPYL3L9GyblWGiS_Q-29" value="nu" style="text;html=1;strokeColor=none;fillColor=none;align=center;verticalAlign=middle;whiteSpace=wrap;rounded=0;" vertex="1" parent="WIyWlLk6GJQsqaUBKTNV-1">
          <mxGeometry x="90" y="435" width="60" height="30" as="geometry" />
        </mxCell>
        <mxCell id="ASdXPYL3L9GyblWGiS_Q-73" value="" style="edgeStyle=orthogonalEdgeStyle;rounded=0;orthogonalLoop=1;jettySize=auto;html=1;entryX=1;entryY=0.5;entryDx=0;entryDy=0;endArrow=none;" edge="1" parent="WIyWlLk6GJQsqaUBKTNV-1" target="ASdXPYL3L9GyblWGiS_Q-72">
          <mxGeometry relative="1" as="geometry">
            <mxPoint x="570" y="590" as="sourcePoint" />
            <mxPoint x="290" y="240" as="targetPoint" />
            <Array as="points">
              <mxPoint x="570" y="240" />
            </Array>
          </mxGeometry>
        </mxCell>
        <mxCell id="ASdXPYL3L9GyblWGiS_Q-72" value="da" style="text;html=1;strokeColor=none;fillColor=none;align=center;verticalAlign=middle;whiteSpace=wrap;rounded=0;" vertex="1" parent="WIyWlLk6GJQsqaUBKTNV-1">
          <mxGeometry x="425" y="225" width="60" height="30" as="geometry" />
        </mxCell>
        <mxCell id="ASdXPYL3L9GyblWGiS_Q-75" value="" style="edgeStyle=orthogonalEdgeStyle;rounded=0;orthogonalLoop=1;jettySize=auto;html=1;entryX=0.5;entryY=0;entryDx=0;entryDy=0;endArrow=none;" edge="1" parent="WIyWlLk6GJQsqaUBKTNV-1" source="WIyWlLk6GJQsqaUBKTNV-6" target="ASdXPYL3L9GyblWGiS_Q-67">
          <mxGeometry relative="1" as="geometry">
            <mxPoint x="270" y="450" as="sourcePoint" />
            <mxPoint x="455" y="495" as="targetPoint" />
            <Array as="points">
              <mxPoint x="455" y="450" />
            </Array>
          </mxGeometry>
        </mxCell>
        <mxCell id="ASdXPYL3L9GyblWGiS_Q-67" value="da" style="text;html=1;strokeColor=none;fillColor=none;align=center;verticalAlign=middle;whiteSpace=wrap;rounded=0;" vertex="1" parent="WIyWlLk6GJQsqaUBKTNV-1">
          <mxGeometry x="425" y="450" width="60" height="30" as="geometry" />
        </mxCell>
        <mxCell id="ASdXPYL3L9GyblWGiS_Q-96" style="edgeStyle=orthogonalEdgeStyle;rounded=0;orthogonalLoop=1;jettySize=auto;html=1;startArrow=none;" edge="1" parent="WIyWlLk6GJQsqaUBKTNV-1" source="ASdXPYL3L9GyblWGiS_Q-62" target="ASdXPYL3L9GyblWGiS_Q-59">
          <mxGeometry relative="1" as="geometry" />
        </mxCell>
        <mxCell id="ASdXPYL3L9GyblWGiS_Q-102" style="edgeStyle=orthogonalEdgeStyle;rounded=0;orthogonalLoop=1;jettySize=auto;html=1;entryX=0;entryY=0.5;entryDx=0;entryDy=0;startArrow=none;exitX=1;exitY=0.25;exitDx=0;exitDy=0;" edge="1" parent="WIyWlLk6GJQsqaUBKTNV-1" source="ASdXPYL3L9GyblWGiS_Q-103" target="ASdXPYL3L9GyblWGiS_Q-3">
          <mxGeometry relative="1" as="geometry">
            <mxPoint x="-120" y="250" as="targetPoint" />
            <mxPoint x="-60" y="230" as="sourcePoint" />
            <Array as="points">
              <mxPoint x="-60" y="240" />
            </Array>
          </mxGeometry>
        </mxCell>
        <mxCell id="ASdXPYL3L9GyblWGiS_Q-81" value="Mai ai vieti?" style="rhombus;whiteSpace=wrap;html=1;shadow=0;strokeWidth=1;spacing=6;spacingTop=-4;" vertex="1" parent="WIyWlLk6GJQsqaUBKTNV-1">
          <mxGeometry x="-15" y="615" width="80" height="80" as="geometry" />
        </mxCell>
        <mxCell id="ASdXPYL3L9GyblWGiS_Q-97" value="" style="edgeStyle=orthogonalEdgeStyle;rounded=0;orthogonalLoop=1;jettySize=auto;html=1;endArrow=none;" edge="1" parent="WIyWlLk6GJQsqaUBKTNV-1" source="ASdXPYL3L9GyblWGiS_Q-81" target="ASdXPYL3L9GyblWGiS_Q-62">
          <mxGeometry relative="1" as="geometry">
            <mxPoint x="25" y="695" as="sourcePoint" />
            <mxPoint x="25" y="760" as="targetPoint" />
          </mxGeometry>
        </mxCell>
        <mxCell id="ASdXPYL3L9GyblWGiS_Q-62" value="nu" style="text;html=1;strokeColor=none;fillColor=none;align=center;verticalAlign=middle;whiteSpace=wrap;rounded=0;" vertex="1" parent="WIyWlLk6GJQsqaUBKTNV-1">
          <mxGeometry x="-5" y="730" width="60" height="30" as="geometry" />
        </mxCell>
        <mxCell id="ASdXPYL3L9GyblWGiS_Q-98" value="ai castigat" style="whiteSpace=wrap;html=1;shadow=0;strokeWidth=1;spacing=6;spacingTop=-4;" vertex="1" parent="WIyWlLk6GJQsqaUBKTNV-1">
          <mxGeometry x="395" y="785" width="120" height="60" as="geometry" />
        </mxCell>
        <mxCell id="ASdXPYL3L9GyblWGiS_Q-100" value="" style="edgeStyle=orthogonalEdgeStyle;rounded=0;orthogonalLoop=1;jettySize=auto;html=1;entryX=1;entryY=0.5;entryDx=0;entryDy=0;endArrow=none;exitX=1;exitY=0.5;exitDx=0;exitDy=0;" edge="1" parent="WIyWlLk6GJQsqaUBKTNV-1" source="ASdXPYL3L9GyblWGiS_Q-20" target="ASdXPYL3L9GyblWGiS_Q-72">
          <mxGeometry relative="1" as="geometry">
            <mxPoint x="570" y="590" as="sourcePoint" />
            <mxPoint x="290" y="240" as="targetPoint" />
            <Array as="points">
              <mxPoint x="570" y="655" />
              <mxPoint x="570" y="240" />
            </Array>
          </mxGeometry>
        </mxCell>
        <mxCell id="ASdXPYL3L9GyblWGiS_Q-106" value="" style="edgeStyle=orthogonalEdgeStyle;rounded=0;orthogonalLoop=1;jettySize=auto;html=1;entryX=0;entryY=0.5;entryDx=0;entryDy=0;endArrow=none;" edge="1" parent="WIyWlLk6GJQsqaUBKTNV-1" source="ASdXPYL3L9GyblWGiS_Q-81" target="ASdXPYL3L9GyblWGiS_Q-103">
          <mxGeometry relative="1" as="geometry">
            <mxPoint x="150" y="240" as="targetPoint" />
            <mxPoint x="-15" y="655" as="sourcePoint" />
            <Array as="points">
              <mxPoint x="-170" y="655" />
              <mxPoint x="-170" y="240" />
            </Array>
          </mxGeometry>
        </mxCell>
        <mxCell id="ASdXPYL3L9GyblWGiS_Q-103" value="da" style="text;html=1;strokeColor=none;fillColor=none;align=center;verticalAlign=middle;whiteSpace=wrap;rounded=0;" vertex="1" parent="WIyWlLk6GJQsqaUBKTNV-1">
          <mxGeometry x="-120" y="225" width="60" height="30" as="geometry" />
        </mxCell>
      </root>
    </mxGraphModel>
  </diagram>
</mxfile>
